# xmcd CD database file
#
# Track frame offsets:
#	150
#	15205
#	36079
#	56776
#	75394
#	92272
#	113804
#	135945
#
# Disc length: 2074 seconds
#
# Revision: 0
# Processed by: cddbd v1.5.2PL0 Copyright (c) Steve Scherf et al.
# Submitted via: CDex 2.19
#
DISCID=4c081808
DTITLE=Imogen Clark - Love and Lovely Lies
DYEAR=2016
DGENRE=Country
TTITLE0=Here goes nothing
TTITLE1=You'll only break my heart
TTITLE2=Things you never had
TTITLE3=Take me for a ride
TTITLE4=How you spend it
TTITLE5=Something out of nothing
TTITLE6=Keep me in the dark
TTITLE7=Drawing Hearts
EXTD=YEAR: 2016
EXTT0=
EXTT1=
EXTT2=
EXTT3=
EXTT4=
EXTT5=
EXTT6=
EXTT7=
PLAYORDER=
